PathFileType	4	(X/Y/Z)	Walk2.trc
DataRate	CameraRate	NumFrames	NumMarkers	Units	OrigDataRate	OrigDataStartFrame	OrigNumFrames
200.000000	200.000000	7	59	mm	200.000000	309	389
Frame#	Times		LFHD		RFHD		LBHD		RBHD		C7		T10		CLAV		STRN		RBack		LASI		RASI		LPSI		RPSI		RACR1		RUA1		RElbow		RFA1		RWRR		RWRU		RCAR		LACR1		LUA1		LElbow		LElbowM		LFA1		LWRR		LWRU		LCAR		RTH1		RTH3		RTH2		RTH4		RLFC		RTB1		RTB3		RTB2		RTB4		RLMAL		RMMAL		RCAL		RMT1		RMT5		RToe		LTH1		LTH3		LTH2		LTH4		LLFC		LTB1		LTB3		LTB2		LTB4		LLMAL		LMMAL		LCAL		LMT1		LMT5		LToe		RElbowM
			X1	Y1	Z1	X2	Y2	Z2	X3	Y3	Z3	X4	Y4	Z4	X5	Y5	Z5	X6	Y6	Z6	X7	Y7	Z7	X8	Y8	Z8	X9	Y9	Z9	X10	Y10	Z10	X11	Y11	Z11	X12	Y12	Z12	X13	Y13	Z13	X14	Y14	Z14	X15	Y15	Z15	X16	Y16	Z16	X17	Y17	Z17	X18	Y18	Z18	X19	Y19	Z19	X20	Y20	Z20	X21	Y21	Z21	X22	Y22	Z22	X23	Y23	Z23	X24	Y24	Z24	X25	Y25	Z25	X26	Y26	Z26	X27	Y27	Z27	X28	Y28	Z28	X29	Y29	Z29	X30	Y30	Z30	X31	Y31	Z31	X32	Y32	Z32	X33	Y33	Z33	X34	Y34	Z34	X35	Y35	Z35	X36	Y36	Z36	X37	Y37	Z37	X38	Y38	Z38	X39	Y39	Z39	X40	Y40	Z40	X41	Y41	Z41	X42	Y42	Z42	X43	Y43	Z43	X44	Y44	Z44	X45	Y45	Z45	X46	Y46	Z46	X47	Y47	Z47	X48	Y48	Z48	X49	Y49	Z49	X50	Y50	Z50	X51	Y51	Z51	X52	Y52	Z52	X53	Y53	Z53	X54	Y54	Z54	X55	Y55	Z55	X56	Y56	Z56	X57	Y57	Z57	X58	Y58	Z58	X59	Y59	Z59

309	1.545	735.81	1582	-76.623	734.96	1581.5	17.996	588.05	1522.5	-107.42	582.86	1528.9	33.864	556.15	1398.9	-24.14	491.74	1130.5	-12.32	696.39	1323.9	-33.587	759.98	1221.1	-29.812	512.25	1307.7	90.175	765.92	950.2	-146.48	748.99	958.97	140.29	507.04	942.97	-49.329	507.65	945.71	40.303	639.97	1365.8	123.06	638.71	1189.6	228.33	602.85	1065.6	261.87	643.58	923.03	280.2	745.62	846.88	243.37	693.58	824.51	287.83	768.3	802.73	297.08	622.75	1349.6	-188.45	583.62	1163.3	-266.11	525.78	1043.4	-275.38	504.25	1025.3	-196.72	495.21	913.35	-289.22	544.82	787.4	-259.13	484.38	796.6	-296.63	529.87	738.22	-297.91	661.27	716.41	209.52	624.04	554.05	169.91	693.56	630.88	162.46	640.37	634.81	186.84	598.35	468.99	151.14	534.63	312.82	81.954	400.93	203.55	79.052	453.02	275.07	136.4	467.17	257.61	77.467	289.97	153.59	103.82	307.11	150.91	23.118	227.26	180.1	65.511	334.68	46.91	35.898	308.27	55.446	107.56	379.87	23.835	65.985	693.75	743.09	-217.52	749.97	590.93	-162.37	774.63	692.69	-178.85	721.01	668.82	-184.87	790.66	479.69	-126.73	855.85	345	-48.936	849.99	172.85	-51.704	831.94	258.48	-106.36	852.44	258.29	-48.663	817.51	58.433	-76.729	827.01	65.097	6.0898	751.38	30.926	-43.977	900.45	24.756	-89.994	929.8	31.497	-10.007	999.11	27.18	-36.417	599.8	1029.3	168.67
310	1.55	741.36	1582.9	-77.501	740.33	1582.5	17.115	593.7	1523.2	-108.45	588.23	1529.8	32.803	561.61	1399.7	-25.177	497.52	1131.2	-12.989	701.92	1324.9	-34.244	765.64	1222.3	-30.459	517.76	1308.8	89.323	772.16	951.85	-146.93	754.52	960.04	139.75	512.95	943.95	-49.784	513.44	946.3	39.862	645.38	1367	122.15	643.84	1190.8	227.45	607.4	1066.7	260.92	646.94	923.87	279.14	748.21	846.78	242.38	696	824.97	286.92	770.44	802.23	295.95	628.65	1350.4	-189.2	590.37	1163.9	-266.84	532.87	1043.8	-276.23	511.13	1025.7	-197.61	502.88	913.59	-290.07	552.85	787.95	-259.64	492.59	796.89	-297.47	538.11	738.54	-298.24	668.72	716.69	208.81	634.14	553.52	170.24	702.47	631.42	162.28	649.14	634.65	186.6	609.47	468.25	151.84	544.88	312.42	83.406	409.36	205.34	79.823	462.12	276.29	137.22	476.55	258.31	78.573	297.29	157.23	103.92	315.24	153.89	23.433	235.95	185.72	64.793	338.19	48.328	36.074	312.04	57.824	107.07	381.25	24.074	66.425	699.9	744.5	-218.33	753.95	591.67	-162.95	779.92	693.1	-179.24	726.08	669.88	-185.57	793.63	479.9	-127.19	857.9	344.75	-49.325	850.78	172.63	-51.866	833.23	258.3	-106.62	853.84	258.05	-48.951	817.54	58.438	-76.742	827.03	65.119	6.0776	751.33	30.93	-44.058	900.42	24.823	-90.023	929.75	31.535	-9.9153	999.18	26.921	-36.335	604.46	1030.7	167.63
311	1.555	746.91	1583.7	-78.365	745.69	1583.5	16.25	599.34	1524	-109.46	593.59	1530.8	31.759	567.04	1400.5	-26.179	503.26	1132	-13.652	707.42	1326	-34.864	771.27	1223.5	-31.071	523.21	1309.9	88.485	778.34	953.48	-147.37	759.97	961.12	139.28	518.83	944.95	-50.311	519.17	946.91	39.351	650.73	1368.2	121.29	648.97	1191.9	226.61	611.95	1067.9	260.03	650.3	924.72	278.14	750.76	846.7	241.39	698.4	825.47	286.05	772.56	801.73	294.81	634.53	1351.1	-189.91	597.13	1164.5	-267.58	539.98	1044.3	-277.1	518.01	1026.1	-198.55	510.63	913.83	-290.94	561.03	788.53	-260.16	500.94	797.17	-298.32	546.54	738.88	-298.6	676.13	717.06	208.13	644.22	553.11	170.59	711.37	632.06	162.18	657.87	634.59	186.39	620.56	467.64	152.56	555.31	312.11	84.897	418.08	207.13	80.631	471.43	277.55	138.05	486.17	259.06	79.712	304.99	160.78	104.06	323.72	156.78	23.775	244.97	191.1	64.159	342.28	49.886	36.314	316.39	60.261	106.64	383.29	24.408	66.942	706	745.89	-219.12	757.81	592.39	-163.51	785.11	693.46	-179.59	731.05	670.92	-186.26	796.41	480.08	-127.64	859.76	344.49	-49.637	851.5	172.41	-51.988	834.46	258.11	-106.84	855.1	257.81	-49.184	817.55	58.439	-76.756	827.03	65.134	6.058	751.28	30.928	-44.134	900.39	24.887	-90.038	929.69	31.59	-9.8384	999.22	26.726	-36.27	609.01	1032	166.66
312	1.56	752.44	1584.6	-79.213	751.04	1584.5	15.401	604.96	1524.7	-110.45	598.92	1531.8	30.733	572.45	1401.3	-27.142	508.97	1132.8	-14.307	712.88	1327	-35.446	776.85	1224.7	-31.65	528.62	1310.9	87.659	784.46	955.07	-147.8	765.35	962.17	138.89	524.67	945.95	-50.911	524.83	947.53	38.769	656.02	1369.3	120.47	654.09	1193.1	225.81	616.49	1069	259.19	653.66	925.58	277.21	753.28	846.64	240.41	700.81	825.98	285.22	774.66	801.25	293.65	640.39	1351.9	-190.58	603.9	1165.1	-268.31	547.1	1044.7	-278	524.87	1026.6	-199.52	518.46	914.06	-291.84	569.35	789.14	-260.72	509.43	797.44	-299.19	555.15	739.25	-298.98	683.5	717.52	207.47	654.24	552.82	170.95	720.25	632.79	162.17	666.56	634.64	186.21	631.58	467.15	153.28	565.9	311.89	86.405	427.08	208.91	81.463	480.96	278.85	138.89	496	259.85	80.867	313.06	164.22	104.23	332.52	159.56	24.137	254.31	196.2	63.622	347.01	51.573	36.625	321.38	62.742	106.27	386.1	24.853	67.541	712.02	747.25	-219.87	761.54	593.07	-164.06	790.2	693.79	-179.9	735.92	671.93	-186.93	799.04	480.23	-128.08	861.45	344.22	-49.87	852.16	172.18	-52.069	835.65	257.92	-107.03	856.24	257.56	-49.356	817.55	58.436	-76.77	827.02	65.14	6.0322	751.22	30.921	-44.205	900.36	24.946	-90.042	929.64	31.651	-9.7742	999.25	26.581	-36.218	613.47	1033.4	165.75
313	1.565	757.96	1585.4	-80.043	756.38	1585.6	14.57	610.57	1525.5	-111.4	604.25	1532.8	29.725	577.84	1402.1	-28.063	514.63	1133.5	-14.954	718.31	1328	-35.992	782.4	1225.9	-32.194	533.98	1311.9	86.846	790.5	956.6	-148.21	770.65	963.18	138.57	530.48	946.97	-51.58	530.42	948.17	38.12	661.27	1370.5	119.7	659.2	1194.2	225.05	621.02	1070.1	258.4	657.02	926.45	276.34	755.76	846.58	239.45	703.22	826.51	284.44	776.75	800.77	292.49	646.22	1352.6	-191.22	610.68	1165.8	-269.03	554.23	1045.2	-278.92	531.74	1027	-200.52	526.36	914.29	-292.77	577.82	789.78	-261.3	518.06	797.7	-300.08	563.94	739.65	-299.39	690.8	718.07	206.83	664.18	552.67	171.31	729.07	633.62	162.24	675.18	634.8	186.05	642.53	466.82	153.97	576.65	311.76	87.909	436.34	210.68	82.305	490.7	280.18	139.71	506.05	260.68	82.022	321.49	167.55	104.45	341.61	162.24	24.515	263.91	201	63.192	352.43	53.372	37.015	327.04	65.25	106	389.77	25.424	68.228	717.96	748.57	-220.6	765.19	593.73	-164.6	795.19	694.09	-180.16	740.71	672.92	-187.58	801.53	480.36	-128.51	862.98	343.94	-50.027	852.77	171.95	-52.107	836.8	257.72	-107.19	857.28	257.3	-49.47	817.55	58.428	-76.783	827	65.136	6.0018	751.17	30.911	-44.269	900.33	24.998	-90.037	929.59	31.715	-9.7207	999.25	26.475	-36.178	617.83	1034.8	164.91
314	1.57	763.47	1586.2	-80.855	761.7	1586.6	13.757	616.17	1526.2	-112.34	609.55	1533.8	28.737	583.21	1402.9	-28.936	520.26	1134.3	-15.592	723.7	1329	-36.503	787.91	1227.1	-32.705	539.29	1312.9	86.046	796.47	958.07	-148.59	775.87	964.16	138.31	536.25	947.98	-52.316	535.96	948.83	37.405	666.48	1371.6	118.99	664.29	1195.3	224.34	625.56	1071.3	257.67	660.39	927.33	275.54	758.21	846.54	238.48	705.64	827.05	283.69	778.84	800.31	291.31	652.03	1353.4	-191.83	617.47	1166.5	-269.74	561.39	1045.7	-279.86	538.6	1027.4	-201.57	534.34	914.52	-293.72	586.43	790.44	-261.9	526.81	797.95	-300.97	572.9	740.08	-299.83	698.01	718.73	206.23	674	552.67	171.67	737.82	634.56	162.41	683.72	635.08	185.91	653.37	466.63	154.62	587.53	311.76	89.388	445.86	212.44	83.145	500.64	281.54	140.51	516.28	261.55	83.163	330.28	170.74	104.7	350.99	164.82	24.901	273.73	205.47	62.872	358.59	55.262	37.49	333.41	67.762	105.81	394.36	26.13	69.004	723.82	749.84	-221.28	768.76	594.37	-165.11	800.08	694.36	-180.39	745.41	673.87	-188.21	803.92	480.47	-128.92	864.38	343.65	-50.114	853.33	171.72	-52.107	837.92	257.51	-107.32	858.23	257.05	-49.528	817.55	58.416	-76.794	826.97	65.123	5.9679	751.11	30.898	-44.328	900.31	25.042	-90.026	929.54	31.775	-9.6762	999.25	26.399	-36.148	622.09	1036.1	164.13
315	1.575	768.96	1587.1	-81.646	767.01	1587.6	12.965	621.75	1526.9	-113.25	614.84	1534.8	27.769	588.58	1403.7	-29.758	525.85	1135.1	-16.222	729.08	1330	-36.981	793.4	1228.3	-33.182	544.55	1313.8	85.258	802.37	959.45	-148.94	781.03	965.09	138.11	541.98	948.98	-53.111	541.43	949.5	36.629	671.65	1372.7	118.32	669.36	1196.3	223.67	630.09	1072.4	257	663.77	928.2	274.82	760.64	846.5	237.53	708.08	827.6	282.98	780.93	799.85	290.13	657.81	1354.2	-192.4	624.25	1167.1	-270.44	568.56	1046.1	-280.83	545.45	1027.8	-202.65	542.39	914.73	-294.7	595.16	791.13	-262.51	535.68	798.17	-301.88	582.04	740.53	-300.3	705.13	719.48	205.66	683.69	552.81	172	746.48	635.6	162.66	692.14	635.48	185.79	664.09	466.6	155.22	598.53	311.87	90.826	455.63	214.19	83.973	510.77	282.95	141.28	526.71	262.49	84.279	339.41	173.79	104.98	360.63	167.31	25.291	283.76	209.57	62.663	365.52	57.217	38.056	340.51	70.26	105.74	399.95	26.974	69.872	729.58	751.07	-221.93	772.28	594.98	-165.61	804.89	694.6	-180.57	750.04	674.78	-188.82	806.23	480.56	-129.32	865.66	343.37	-50.142	853.85	171.49	-52.073	839.03	257.3	-107.41	859.1	256.79	-49.54	817.54	58.401	-76.805	826.94	65.105	5.9317	751.06	30.885	-44.381	900.28	25.078	-90.013	929.49	31.831	-9.6392	999.23	26.345	-36.124	626.28	1037.4	163.44
